<?xml version="1.0" encoding="UTF-8" standalone="no"?>
<!-- Uploaded to: SVG Repo, www.svgrepo.com, Generator: SVG Repo Mixer Tools -->

<svg
   fill="#000000"
   version="1.1"
   id="Capa_1"
   width="800"
   height="800"
   viewBox="0 0 96.875 96.875"
   xml:space="preserve"
   sodipodi:docname="logo-yt-black.svg"
   xmlns:inkscape="http://www.inkscape.org/namespaces/inkscape"
   xmlns:sodipodi="http://sodipodi.sourceforge.net/DTD/sodipodi-0.dtd"
   xmlns="http://www.w3.org/2000/svg"
   xmlns:svg="http://www.w3.org/2000/svg"><defs
   id="defs1" /><sodipodi:namedview
   id="namedview1"
   pagecolor="#ffffff"
   bordercolor="#000000"
   borderopacity="0.25"
   inkscape:showpageshadow="2"
   inkscape:pageopacity="0.0"
   inkscape:pagecheckerboard="0"
   inkscape:deskcolor="#d1d1d1"><inkscape:page
     x="0"
     y="0"
     width="96.875"
     height="96.875"
     id="page2"
     margin="0"
     bleed="0" /></sodipodi:namedview>
<g
   id="g1"
   style="fill:#ffffff">
	<path
   d="M 95.201,25.538 C 94.015,20.386 89.801,16.585 84.728,16.018 72.715,14.677 60.556,14.67 48.453,14.677 36.348,14.67 24.187,14.677 12.174,16.018 7.104,16.585 2.893,20.386 1.707,25.538 0.019,32.875 0,40.884 0,48.438 0,55.992 0,64 1.688,71.336 c 1.184,5.151 5.396,8.952 10.469,9.52 12.012,1.342 24.172,1.349 36.277,1.342 12.107,0.007 24.264,0 36.275,-1.342 5.07,-0.567 9.285,-4.368 10.471,-9.52 1.689,-7.337 1.695,-15.345 1.695,-22.898 0,-7.554 0.014,-15.563 -1.674,-22.9 z M 35.936,63.474 c 0,-10.716 0,-21.32 0,-32.037 10.267,5.357 20.466,10.678 30.798,16.068 -10.3,5.342 -20.504,10.631 -30.798,15.969 z"
   id="path1"
   style="fill:#ffffff" />
</g>
</svg>
